<svg xmlns="http://www.w3.org/2000/svg" role="img" viewBox="0 0 38 24" width="38" height="24" aria-labelledby="pi-raipay">
    <title id="pi-raipay">Raipay</title>
    <path fill="#000000" opacity="1.000000" stroke="none" 
	d="
M691.000000,1081.000000 
	C462.193024,1081.000000 233.886032,1080.990723 5.579080,1081.084351 
	C1.977691,1081.085815 0.893834,1080.509521 0.895078,1076.580078 
	C1.008125,719.621277 1.009525,362.662476 0.883669,5.703712 
	C0.882206,1.552249 1.837089,0.894648 5.795265,0.895894 
	C362.587402,1.008123 719.379578,1.007621 1076.171753,0.900608 
	C1080.061035,0.899441 1081.122070,1.448657 1081.120483,5.670650 
	C1080.990112,362.462769 1080.989624,719.254944 1081.120972,1076.047119 
	C1081.122559,1080.402588 1080.061035,1081.107300 1075.953979,1081.103271 
	C947.802734,1080.977173 819.651367,1081.000000 691.000000,1081.000000 
z"/>
<path fill="#14120C" opacity="1.000000" stroke="none" 
	d="
M968.382446,488.428772 
	C962.351440,519.542603 956.438049,550.245178 950.512329,580.945312 
	C948.779968,589.920532 947.887390,599.078674 945.171326,607.839478 
	C936.935059,634.405823 919.229431,651.672852 893.242004,661.128113 
	C844.590210,678.829773 796.048096,696.832520 747.442749,714.662170 
	C712.589661,727.447083 677.690796,740.106995 642.843689,752.908142 
	C602.372864,767.775085 561.951050,782.775391 521.480347,797.642822 
	C486.633423,810.444275 451.750336,823.147461 416.878448,835.880981 
	C388.574310,846.216309 360.458191,857.113647 331.901367,866.697021 
	C302.148346,876.681641 272.468079,874.360901 243.852768,861.815063 
	C214.179520,848.805359 192.344833,827.305786 178.578415,797.964783 
	C171.786926,783.489746 167.124512,768.136414 161.580032,753.151367 
	C147.484985,715.056946 133.305695,676.991821 119.546387,638.775818 
	C111.766335,617.167053 102.237877,596.101013 96.629021,573.810608 
	C88.905991,543.118103 91.428467,512.853943 105.496620,484.308838 
	C120.378326,454.113068 143.737411,432.869080 175.640228,421.233765 
	C216.301697,406.404083 256.860260,391.292542 297.487335,376.368225 
	C332.178162,363.624573 366.918854,351.016663 401.608612,338.270142 
	C438.484131,324.720459 475.314026,311.046814 512.185608,297.486328 
	C543.121643,286.108826 574.099548,274.845215 605.039429,263.478180 
	C639.415771,250.848633 673.692566,237.942505 708.170227,225.596802 
	C723.029846,220.275925 737.343872,213.053070 753.087341,210.567551 
	C777.166199,206.766068 798.776672,212.502167 817.769531,228.170822 
	C837.251953,244.243317 857.016663,259.974426 876.698059,275.804901 
	C899.616882,294.239380 922.590088,312.606262 945.518372,331.028992 
	C956.529358,339.876251 967.182251,349.207031 978.569946,357.535858 
	C988.263611,364.625641 990.714172,373.636444 988.576477,384.671082 
	C981.902100,419.123322 975.191772,453.568604 968.382446,488.428772 
z"/>
<path fill="#FDE500" opacity="1.000000" stroke="none" 
	d="
M292.110962,830.001343 
	C257.481323,828.805725 226.487885,805.985901 214.116074,772.465210 
	C189.487076,705.734436 164.897766,638.988159 140.577637,572.144470 
	C124.517822,528.004150 144.467789,479.850403 186.245895,463.015625 
	C213.518219,452.026062 241.375397,442.485504 268.987610,432.342163 
	C430.595795,372.975647 592.204224,313.609772 753.829346,254.289505 
	C766.980713,249.462646 779.143250,251.913437 789.935059,260.582855 
	C823.692627,287.701508 857.346008,314.949768 891.053650,342.130554 
	C907.908081,355.721436 924.749817,369.328888 941.712280,382.783752 
	C944.122498,384.695557 944.796997,386.331512 944.186584,389.435638 
	C937.928711,421.257843 931.877930,453.120758 925.729980,485.177551 
	C923.298767,484.962677 922.525879,482.904785 921.375244,481.499573 
	C906.602722,463.458435 891.835510,445.412170 877.220886,427.243408 
	C875.213379,424.747589 873.599487,424.283783 870.593262,425.425842 
	C857.548218,430.381775 844.394897,435.052917 831.272766,439.805115 
	C830.181458,440.200317 828.998291,440.366699 828.081299,441.580780 
	C845.178589,461.042419 862.314392,480.548035 879.450317,500.053589 
	C890.551086,512.689392 901.620483,525.353027 912.786133,537.931274 
	C914.486938,539.847229 914.916382,541.514832 914.389404,544.156128 
	C911.298706,559.647644 908.580872,575.212952 905.624268,590.731873 
	C902.881470,605.127991 894.780029,615.009521 880.857483,620.112671 
	C795.503601,651.398621 710.162231,682.718506 624.862549,714.151550 
	C621.205261,715.499268 619.873962,714.986084 618.581970,711.254456 
	C613.691956,697.131104 608.395630,683.148804 603.349426,669.078552 
	C602.881042,667.772583 601.779297,666.484619 602.484741,664.622314 
	C611.683105,668.327209 621.016541,670.690674 631.056885,669.346252 
	C657.633423,665.787598 677.710510,647.514648 681.730347,620.886292 
	C686.985962,586.072266 676.368713,556.151428 649.500488,533.196594 
	C623.442200,510.933777 583.808594,515.989929 565.773132,542.890381 
	C564.052917,545.456116 562.632202,548.222595 560.814331,551.338379 
	C560.136047,549.868042 559.622131,548.907410 559.238159,547.897278 
	C556.195007,539.892090 556.201965,539.887512 547.926880,542.896179 
	C537.462830,546.700684 527.058594,550.683533 516.505432,554.221863 
	C512.719360,555.491333 512.317505,556.894104 513.654053,560.540527 
	C533.957214,615.930847 554.035034,671.403870 574.379944,726.778748 
	C575.969482,731.104980 575.202271,732.470825 571.001587,734.007385 
	C488.282166,764.263855 405.621735,794.681458 322.949371,825.066467 
	C313.147797,828.668823 303.037933,830.373535 292.110962,830.001343 
z"/>
<path fill="#FCE400" opacity="1.000000" stroke="none" 
	d="
M632.066101,616.823059 
	C622.665405,636.242737 599.133057,638.447144 586.841309,621.237549 
	C580.208252,611.950684 576.396484,601.484070 577.068359,589.902527 
	C577.632141,580.185120 582.377502,572.913940 591.302368,568.626648 
	C600.105591,564.398010 608.612366,564.692078 616.857239,570.195251 
	C628.141296,577.726990 637.905518,604.069763 632.066101,616.823059 
z"/>
<path fill="#14120C" opacity="1.000000" stroke="none" 
	d="
M744.225708,470.172058 
	C753.066101,469.988861 760.993835,472.087097 769.573975,475.920776 
	C768.327881,472.348816 767.526550,469.702240 766.479736,467.156708 
	C765.568604,464.941284 765.578064,463.653717 768.300476,462.691650 
	C781.146790,458.151764 793.965332,453.521729 806.679932,448.627930 
	C810.594971,447.121033 810.354980,450.009247 811.054016,451.922302 
	C822.058594,482.039337 833.012451,512.174927 843.990417,542.301697 
	C848.544556,554.799561 853.042480,567.319092 857.757324,579.756226 
	C858.962219,582.934692 858.421204,584.131897 855.063904,585.271301 
	C842.960815,589.378662 830.951965,593.780457 819.020508,598.365173 
	C815.808167,599.599548 814.216736,599.400818 813.342407,595.865234 
	C812.718262,593.341064 811.580994,590.943787 810.518005,588.072205 
	C807.837341,592.703003 805.759888,597.231262 802.521790,601.064941 
	C784.523560,622.373962 752.494934,627.008728 728.150085,611.760986 
	C697.527405,592.581238 680.063782,545.391296 691.279724,511.061523 
	C699.529297,485.811188 717.844788,472.973755 744.225708,470.172058 
z"/>
<path fill="#14120C" opacity="1.000000" stroke="none" 
	d="
M308.504333,752.694092 
	C314.542725,756.226074 320.726532,756.099121 326.775909,754.613220 
	C341.787354,750.926147 355.218750,744.235046 365.335236,732.156982 
	C367.499207,729.573425 368.634308,730.136108 370.759247,731.967773 
	C378.198853,738.380615 385.706421,744.725830 393.414337,750.810242 
	C396.090546,752.922791 395.820404,754.290222 393.931427,756.683350 
	C379.410614,775.079468 359.961578,785.624329 337.917542,792.014038 
	C325.298889,795.671753 312.443542,797.057922 299.403259,794.734070 
	C283.496216,791.899414 270.310181,784.174988 260.589447,771.298645 
	C244.625748,750.152893 237.457336,726.374023 242.331528,700.000549 
	C247.641754,671.267761 271.943085,649.290466 302.978943,643.986328 
	C335.705688,638.393311 363.099487,653.129028 377.959625,684.639587 
	C381.279572,691.679504 383.552246,699.206665 386.649353,706.361328 
	C388.116333,709.750183 387.465698,710.961975 383.961121,712.214905 
	C357.849548,721.549805 331.825409,731.129211 305.774048,740.632507 
	C298.664276,743.226135 298.610260,743.370911 303.990936,748.976074 
	C305.247375,750.284851 306.777039,751.331299 308.504333,752.694092 
z"/>
<path fill="#15120C" opacity="1.000000" stroke="none" 
	d="
M514.231201,662.224365 
	C506.522369,678.966797 498.979065,695.368286 490.911377,712.909790 
	C487.739990,704.408508 484.724030,697.138672 482.369904,689.660400 
	C481.238556,686.066528 479.818695,685.972839 476.767090,687.112000 
	C456.070099,694.838135 435.294861,702.355103 414.608765,710.110046 
	C411.221191,711.380005 409.525543,711.441589 408.148468,707.402100 
	C403.701721,694.358032 398.939606,681.413513 393.938965,668.570862 
	C392.456024,664.762329 393.414337,663.535095 396.978394,662.257812 
	C417.777740,654.803955 438.469482,647.049866 459.262848,639.578979 
	C462.430878,638.440735 463.349823,637.370178 461.967194,634.002808 
	C458.951385,626.657837 456.403778,619.120667 453.714966,611.798523 
	C454.971741,610.427612 455.750671,611.455627 456.550354,611.832397 
	C477.586243,621.745056 498.586121,631.735107 519.681519,641.519287 
	C522.452332,642.804382 522.993530,643.792908 521.563904,646.539246 
	C518.959717,651.541992 516.763245,656.756958 514.231201,662.224365 
z"/>
<path fill="#1F1F1B" opacity="1.000000" stroke="none" 
	d="
M225.193619,588.800659 
	C222.497818,586.294800 219.897079,584.183228 217.656219,581.741455 
	C215.782928,579.700134 214.046646,580.690552 212.283035,581.463379 
	C209.702026,582.594360 211.568970,584.342834 212.025558,585.645508 
	C215.048172,594.269531 218.088333,602.891968 221.391495,611.410706 
	C222.492050,614.248962 222.142548,615.506775 219.124435,616.485168 
	C213.123383,618.430420 207.191849,620.626648 201.349594,623.008667 
	C198.723999,624.079041 197.939499,623.039062 197.149872,620.854431 
	C187.095200,593.036804 176.986908,565.238525 166.899765,537.432617 
	C166.371338,535.976013 165.096909,534.482971 167.815063,533.578857 
	C183.408325,528.391907 198.340271,521.185791 214.435928,517.584412 
	C227.634872,514.631226 238.936646,519.906494 245.044235,530.913391 
	C251.720093,542.944397 250.301498,555.277222 240.722763,565.310852 
	C238.544617,567.592346 238.510437,568.596436 240.926865,570.633606 
	C250.597794,578.786621 260.076874,587.167419 269.616089,595.476318 
	C270.085907,595.885559 270.453491,596.412170 271.311279,597.387268 
	C262.708557,600.531006 254.493011,603.468872 246.336197,606.561646 
	C244.426361,607.285828 243.607117,606.150513 242.529785,605.133545 
	C236.842560,599.764771 231.141098,594.410950 225.193619,588.800659 
z"/>
<path fill="#1F1F1B" opacity="1.000000" stroke="none" 
	d="
M335.852692,528.179626 
	C340.293976,540.415100 344.438904,552.347961 349.038361,564.102966 
	C350.548859,567.963257 349.570038,569.269958 345.919525,570.319153 
	C341.300079,571.646790 336.784210,573.396851 332.334595,575.233521 
	C328.839325,576.676270 325.804230,577.813477 325.804108,570.888428 
	C322.180237,576.308105 319.212463,580.416565 314.748840,583.157837 
	C302.311249,590.796204 287.384430,589.344055 276.692810,578.749084 
	C264.557190,566.723206 259.608765,551.920593 262.126221,535.028320 
	C264.791992,517.141052 282.850677,504.484039 303.362427,511.841461 
	C300.009155,506.010986 304.046875,505.106384 307.941986,503.844666 
	C312.524292,502.360382 317.101929,500.790466 321.509918,498.864716 
	C324.317841,497.638031 325.153931,498.580139 326.033875,501.105286 
	C329.149811,510.046936 332.482666,518.913025 335.852692,528.179626 
z"/>
<path fill="#1F1F1B" opacity="1.000000" stroke="none" 
	d="
M691.902527,382.002686 
	C695.239929,364.907532 707.867920,353.176697 724.983459,350.899323 
	C741.628540,348.684509 754.891968,355.972778 762.616943,371.778534 
	C764.360535,375.346222 765.407654,379.252289 767.120544,382.837708 
	C768.386963,385.488617 767.181885,386.199677 765.010620,386.977631 
	C752.046936,391.622681 739.111450,396.346436 726.173340,401.062469 
	C721.963135,402.597076 721.791565,403.563202 725.158997,406.416473 
	C728.357300,409.126404 732.076721,409.562164 735.968323,408.602936 
	C743.363586,406.780151 750.099487,403.601593 755.274597,397.861053 
	C757.009460,395.936584 758.106812,395.774506 760.018982,397.517426 
	C763.335144,400.540192 766.813843,403.397339 770.358093,406.151886 
	C772.091858,407.499329 772.017029,408.471527 770.811768,410.204559 
	C760.758240,424.660461 733.753601,433.771271 717.021423,428.240204 
	C702.826965,423.548035 692.118591,407.492523 691.530457,389.889984 
	C691.447510,387.407471 691.734924,384.912537 691.902527,382.002686 
z"/>
<path fill="#1F1F1B" opacity="1.000000" stroke="none" 
	d="
M531.770996,420.577911 
	C552.772461,416.777588 567.219482,425.132721 575.189758,445.327118 
	C578.881348,454.680725 578.878052,454.671448 569.607056,458.046722 
	C557.452148,462.471893 545.303284,466.913513 533.114380,471.361725 
	C536.207092,476.988098 540.079407,478.955902 545.880615,477.674683 
	C553.499084,475.992065 560.391968,472.769775 565.718323,466.910217 
	C567.394775,465.065979 568.467285,464.530701 570.490784,466.412170 
	C573.654602,469.353821 577.014465,472.100464 580.433960,474.745270 
	C582.438904,476.295929 582.646606,477.454620 581.031738,479.591309 
	C570.663147,493.310120 545.842102,502.381622 529.421509,497.763153 
	C513.836060,493.379547 506.545105,481.331665 503.141052,466.659943 
	C498.044403,444.693115 509.057709,427.135742 531.770996,420.577911 
z"/>
<path fill="#1F1F1B" opacity="1.000000" stroke="none" 
	d="
M858.617554,380.493896 
	C859.908264,383.474792 857.922485,383.948242 856.197510,384.572662 
	C850.889038,386.494324 845.491760,388.202484 840.294189,390.386841 
	C837.186279,391.693024 836.020264,390.878967 834.968689,387.868561 
	C830.748230,375.786530 826.346924,363.766541 821.901062,351.764923 
	C820.378662,347.655060 818.501221,343.495911 813.424316,342.934845 
	C807.902405,342.324646 803.332642,344.506653 799.876038,348.854919 
	C797.568726,351.757507 796.959900,354.687805 798.424927,358.485382 
	C803.265503,371.032562 807.596375,383.775604 812.341431,396.361053 
	C813.426208,399.238129 813.034546,400.442657 810.042297,401.397430 
	C804.346191,403.214813 798.746826,405.353058 793.172791,407.526215 
	C791.153381,408.313538 790.235840,407.934021 789.493652,405.878998 
	C781.595703,384.009827 773.671387,362.149811 765.610107,340.340515 
	C764.668945,337.794281 765.689758,337.186890 767.687012,336.496124 
	C772.390747,334.869202 777.158630,333.352783 781.687927,331.318329 
	C786.011597,329.376312 789.233093,328.950989 790.001892,335.882385 
	C795.173035,325.840729 802.558655,320.436768 812.674805,318.674103 
	C822.422607,316.975555 830.344788,320.019989 836.758423,327.359192 
	C839.975525,331.040588 842.161743,335.335846 843.827148,339.889618 
	C848.729126,353.293823 853.578247,366.717346 858.617554,380.493896 
z"/>
<path fill="#1F1F1B" opacity="1.000000" stroke="none" 
	d="
M657.364075,396.867706 
	C652.902100,397.387177 649.094055,398.513092 645.694153,400.716797 
	C644.305725,401.616791 642.924744,402.791718 643.440125,404.772980 
	C643.938477,406.688904 645.536499,407.380554 647.283875,407.332123 
	C650.932556,407.230957 654.574219,406.894409 658.221130,406.699158 
	C662.038757,406.494781 665.878479,406.012146 669.674438,406.234558 
	C678.354614,406.743225 685.476746,410.008881 689.174622,418.563324 
	C693.014404,427.445892 692.729492,436.224457 685.961548,443.250641 
	C672.621765,457.099426 655.884705,461.336487 637.114624,458.470428 
	C634.358765,458.049622 633.531494,456.671539 634.129822,454.013153 
	C635.041565,449.961761 636.009033,445.900574 636.527222,441.789856 
	C636.958435,438.369568 638.109619,437.409241 641.633545,438.304413 
	C648.832642,440.133301 655.868591,438.863068 662.535217,435.788361 
	C664.728333,434.776886 667.503662,433.576538 666.628601,430.393921 
	C665.786987,427.333435 662.894104,427.347351 660.398438,427.561462 
	C654.931824,428.030426 649.497314,428.898956 644.027466,429.300690 
	C634.842651,429.975311 626.715332,428.007477 621.975342,419.075104 
	C617.052979,409.799133 617.832764,399.018768 624.991516,391.650909 
	C637.915649,378.349365 653.955872,374.190308 672.046753,377.411377 
	C674.627686,377.870880 676.160400,378.822083 675.184875,382.098053 
	C673.908264,386.384857 673.197632,390.846985 672.369263,395.257294 
	C672.005066,397.195953 671.613464,398.085815 669.201538,397.365936 
	C665.527344,396.269318 661.652222,396.178345 657.364075,396.867706 
z"/>
<path fill="#1F1F1B" opacity="1.000000" stroke="none" 
	d="
M393.291077,496.834839 
	C389.837708,496.323273 387.169189,498.187866 384.236694,499.097168 
	C382.407379,499.664398 381.317993,499.951813 380.558685,497.616791 
	C378.914429,492.560211 377.016266,487.581360 375.075653,482.628021 
	C374.180603,480.343536 374.889465,479.378998 377.113556,478.667969 
	C379.777374,477.816376 383.260559,477.241547 384.648376,475.301666 
	C386.159302,473.189697 383.613098,470.089600 383.165222,467.339447 
	C381.311218,455.955109 386.555786,446.111969 397.732513,440.394257 
	C403.740448,437.320801 410.211731,435.942169 416.893005,435.235352 
	C419.466248,434.963104 420.114166,435.937347 420.081726,438.213745 
	C420.048615,440.540741 420.215546,442.871094 420.309784,445.199341 
	C420.424042,448.020844 421.373749,451.153229 420.452637,453.577637 
	C419.477600,456.143890 415.684479,454.713745 413.369476,455.971100 
	C411.763489,456.843353 409.970154,457.396545 408.805176,458.896698 
	C407.055023,461.150360 407.282318,463.739716 408.552643,465.918640 
	C409.778137,468.020752 411.561249,466.008209 412.931091,465.599457 
	C417.200867,464.325470 422.238586,460.578674 425.364044,461.828400 
	C429.044220,463.299988 429.153168,469.778015 430.819946,474.071777 
	C433.557953,481.125183 433.427185,481.175995 426.275085,483.783478 
	C416.247620,487.439270 416.243805,487.440613 419.950623,497.660645 
	C424.312378,509.686340 428.505005,521.778198 433.152710,533.692444 
	C434.590027,537.376953 433.628601,538.636536 430.253601,539.693542 
	C425.188080,541.279907 420.139862,543.009949 415.276245,545.121094 
	C412.123138,546.489746 411.049255,545.590759 409.993073,542.614075 
	C404.602844,527.423096 399.013367,512.302795 393.291077,496.834839 
z"/>
<path fill="#1F1F1B" opacity="1.000000" stroke="none" 
	d="
M464.928894,415.781799 
	C468.816010,414.497772 472.409943,413.945709 476.093597,413.815369 
	C478.187286,413.741272 479.565735,414.004028 479.549225,416.679718 
	C479.521576,421.164124 479.770660,425.654205 480.029053,430.134644 
	C480.145447,432.152130 479.589783,433.097656 477.389130,433.290619 
	C474.919464,433.507172 472.497375,434.216217 470.302399,435.515594 
	C467.724335,437.041656 466.575745,439.193665 467.118896,442.204346 
	C467.561554,444.657928 468.645966,445.812683 471.194702,444.468994 
	C471.776001,444.162506 472.441071,444.010468 473.073669,443.806244 
	C477.145569,442.491608 481.913666,438.567719 485.016083,440.395905 
	C487.933319,442.114990 488.530518,447.872803 490.012695,451.903595 
	C492.798096,459.478302 492.757385,459.493195 485.226959,462.254822 
	C475.586060,465.790436 475.561981,465.799255 479.096130,475.511993 
	C483.580444,487.835876 488.071899,500.157501 492.647461,512.447632 
	C493.630371,515.087769 493.988312,516.806580 490.428192,517.821899 
	C485.010620,519.367004 479.707428,521.385376 474.488647,523.526855 
	C471.632202,524.698975 470.488068,524.080444 469.469360,521.202454 
	C464.425049,506.951538 459.043854,492.818939 454.085175,478.539215 
	C452.851685,474.987091 451.432343,474.006104 448.107391,475.791809 
	C446.807495,476.489899 445.194458,476.607574 443.899994,477.312592 
	C441.323700,478.715790 440.451752,477.562225 439.677917,475.202484 
	C438.126282,470.471100 436.478577,465.754333 434.530426,461.176270 
	C433.385681,458.486206 434.505463,457.729553 436.730316,456.923431 
	C439.356537,455.971802 443.127380,455.927948 444.211823,453.608521 
	C445.080688,451.750183 443.254456,448.687592 442.770752,446.131683 
	C440.330963,433.239990 446.900513,422.663300 460.757812,417.134064 
	C461.986816,416.643677 463.277344,416.307587 464.928894,415.781799 
z"/>
<path fill="#201F1B" opacity="1.000000" stroke="none" 
	d="
M346.235107,506.741150 
	C344.743164,502.627686 343.469330,498.848175 342.001312,495.145691 
	C341.149719,492.997803 340.897003,491.664429 343.745575,490.761993 
	C349.596008,488.908600 355.336060,486.690735 361.062744,484.471100 
	C363.250519,483.623138 364.266998,483.997437 365.104736,486.319061 
	C372.927368,507.998260 380.833252,529.647705 388.809448,551.270874 
	C389.756439,553.838135 388.928314,554.761230 386.559540,555.538025 
	C381.206390,557.293518 375.811798,559.024780 370.679382,561.315491 
	C367.191803,562.871948 366.139587,561.638062 365.049591,558.587646 
	C358.907135,541.397766 352.613739,524.261780 346.235107,506.741150 
z"/>
<path fill="#20201B" opacity="1.000000" stroke="none" 
	d="
M592.078735,452.925537 
	C586.869385,438.522125 581.845764,424.465485 576.598999,410.492615 
	C575.485107,407.526184 575.743042,406.102509 578.988831,405.095215 
	C584.371582,403.424622 589.648499,401.391144 594.903442,399.340240 
	C597.350342,398.385254 598.661072,398.574768 599.665588,401.382507 
	C607.383606,422.954590 615.202820,444.491150 623.151184,465.979279 
	C624.135803,468.641022 623.372009,469.396912 621.021545,470.181000 
	C615.356995,472.070587 609.720093,474.072418 604.186157,476.311127 
	C601.697876,477.317749 600.711243,476.839325 599.851868,474.328827 
	C597.436096,467.272034 594.758911,460.304749 592.078735,452.925537 
z"/>
<path fill="#1F1F1B" opacity="1.000000" stroke="none" 
	d="
M345.688171,481.449097 
	C337.162201,482.042023 331.592590,475.232880 331.230865,467.136932 
	C330.928253,460.364075 336.975220,454.411072 344.260162,453.872284 
	C351.727203,453.320038 357.540924,457.832336 358.868103,465.210175 
	C360.163361,472.410614 356.535553,478.447510 349.494110,480.714783 
	C348.393463,481.069153 347.217072,481.188385 345.688171,481.449097 
z"/>
<path fill="#201F1B" opacity="1.000000" stroke="none" 
	d="
M579.990967,368.501343 
	C589.268066,368.193451 594.326294,377.474274 593.337097,384.623810 
	C592.296936,392.141968 584.857117,397.266113 576.744019,396.004028 
	C569.704590,394.908905 564.776062,387.336304 565.928772,379.386200 
	C566.786194,373.471985 571.700073,369.559418 579.990967,368.501343 
z"/>
<path fill="#FCE400" opacity="1.000000" stroke="none" 
	d="
M742.844360,516.905884 
	C756.244812,503.132507 774.741577,504.598846 785.276611,520.141235 
	C791.183899,528.856201 794.560425,538.473572 794.165771,549.175415 
	C793.765625,560.026855 788.666443,567.762329 778.692871,572.128601 
	C768.676819,576.513367 759.045105,575.306152 751.505981,567.600220 
	C741.052063,556.914917 736.220154,543.695923 737.839172,528.534668 
	C738.289612,524.316589 740.131592,520.595215 742.844360,516.905884 
z"/>
<path fill="#FAE200" opacity="1.000000" stroke="none" 
	d="
M302.225891,709.175415 
	C298.420624,710.550781 294.931549,711.679321 291.578949,713.124512 
	C289.371216,714.076172 288.841827,713.258240 288.358887,711.261658 
	C285.430511,699.156006 291.420288,688.260620 303.504608,683.920898 
	C315.590698,679.580505 326.348969,684.071167 331.848450,695.540283 
	C333.124603,698.201599 331.649445,698.526306 329.787323,699.192078 
	C320.708984,702.437805 311.659637,705.764771 302.225891,709.175415 
z"/>
<path fill="#F9E101" opacity="1.000000" stroke="none" 
	d="
M199.545929,551.488159 
	C196.813354,547.092590 198.749268,545.389771 202.665237,544.348450 
	C205.701294,543.541138 208.572357,542.122375 211.600250,541.273193 
	C217.163818,539.712769 220.211014,541.328003 222.167419,546.571350 
	C224.142349,551.864380 222.681076,555.695435 217.721695,558.152405 
	C216.981155,558.519287 216.187347,558.780579 215.412766,559.076538 
	C203.775879,563.523621 203.775681,563.523132 199.545929,551.488159 
z"/>
<path fill="#F9E201" opacity="1.000000" stroke="none" 
	d="
M316.301819,553.096191 
	C314.668762,559.838440 310.168488,563.059509 304.118591,563.667419 
	C298.475067,564.234558 294.350189,561.040039 291.436371,556.351807 
	C289.122314,552.628662 287.811005,548.496277 287.225189,544.198730 
	C286.414886,538.254456 289.521881,532.792847 294.807190,530.326233 
	C300.330475,527.748596 306.076935,528.712830 310.217102,533.457153 
	C314.980225,538.915466 317.439178,545.299438 316.301819,553.096191 
z"/>
<path fill="#F7E001" opacity="1.000000" stroke="none" 
	d="
M717.210938,377.570343 
	C723.853699,369.262695 732.616150,368.901428 737.688293,376.322479 
	C738.953125,378.172943 739.412659,379.263092 736.607971,380.158081 
	C731.260376,381.864532 725.923218,383.707306 720.801758,385.987640 
	C716.255798,388.011658 715.606018,385.957153 716.036011,382.241913 
	C716.204834,380.783661 716.699829,379.363190 717.210938,377.570343 
z"/>
<path fill="#F6DF01" opacity="1.000000" stroke="none" 
	d="
M548.529724,445.819122 
	C549.932190,448.172516 548.523865,448.600250 546.980835,449.146149 
	C541.230896,451.180359 535.442444,453.132477 529.806152,455.450256 
	C526.837952,456.670807 526.876221,455.015686 526.674194,453.063385 
	C526.095093,447.467133 528.689148,443.286835 534.174316,441.065582 
	C540.053467,438.684784 544.073059,439.953094 548.529724,445.819122 
z"/>
</svg>
